<svg width="140" height="20" viewBox="0 0 140 20" fill="none" xmlns="http://www.w3.org/2000/svg"><g id="Layer_1" clip-path="url(#clip0_1916_3189)"><path id="Vector" d="M132 16C136.411 16 140 12.4107 140 8C140 3.58933 136.411 0 132 0C127.589 0 124 3.58933 124 8C124 12.4107 127.589 16 132 16ZM132 0.901333C135.763 0.901333 138.849 3.844 139.083 7.54933H137.541C137.311 4.69333 134.915 2.44 132 2.44C129.085 2.44 126.689 4.69333 126.459 7.54933H124.917C125.151 3.84533 128.237 0.901333 132 0.901333ZM136.637 8.45067C136.409 10.8093 134.417 12.6587 132 12.6587C129.583 12.6587 127.591 10.8093 127.363 8.45067H136.636H136.637ZM129.947 7.54933C130.153 6.60533 130.996 5.896 132.001 5.896C133.007 5.896 133.848 6.60533 134.056 7.54933H129.948H129.947ZM134.972 7.54933C134.753 6.10533 133.504 4.99467 132 4.99467C130.496 4.99467 129.247 6.10533 129.028 7.54933H127.363C127.591 5.19067 129.583 3.34133 132 3.34133C134.417 3.34133 136.409 5.19067 136.637 7.54933H134.972ZM126.46 8.45067C126.691 11.3067 129.087 13.56 132.001 13.56C134.916 13.56 137.312 11.3067 137.543 8.45067H139.084C138.851 12.1547 135.764 15.0987 132.001 15.0987C128.239 15.0987 125.152 12.156 124.919 8.45067H126.46Z" class="fill-poheWhite"></path><path id="Vector_2" d="M0 4.33925H2.972V5.79258H3.016C3.39733 5.17525 3.88133 4.72858 4.46933 4.44992C5.056 4.17125 5.70267 4.03125 6.408 4.03125C7.30267 4.03125 8.07333 4.20058 8.72 4.53792C9.36533 4.87658 9.90267 5.32325 10.328 5.88058C10.7533 6.43925 11.0693 7.08858 11.2747 7.82992C11.48 8.57125 11.5827 9.34592 11.5827 10.1526C11.5827 10.9166 11.48 11.6499 11.2747 12.3553C11.0693 13.0593 10.7573 13.6846 10.3387 14.2273C9.92 14.7713 9.39867 15.2073 8.77467 15.5379C8.15067 15.8686 7.42 16.0326 6.584 16.0326C5.89467 16.0326 5.248 15.8859 4.64667 15.5926C4.044 15.2993 3.55333 14.8739 3.172 14.3153H3.128V20.0019H0V4.33925ZM5.74667 13.6753C6.26 13.6753 6.68933 13.5726 7.03467 13.3673C7.38 13.1619 7.65867 12.8939 7.872 12.5633C8.084 12.2326 8.23467 11.8513 8.32267 11.4179C8.41067 10.9859 8.45467 10.5339 8.45467 10.0633C8.45467 9.59258 8.40667 9.16058 8.31067 8.72058C8.21467 8.28058 8.05733 7.88725 7.83733 7.54325C7.61733 7.19792 7.33467 6.91925 6.99067 6.70592C6.64533 6.49392 6.22267 6.38725 5.724 6.38725C5.22533 6.38725 4.78133 6.49392 4.436 6.70592C4.09067 6.91925 3.812 7.19525 3.6 7.53125C3.38667 7.86992 3.236 8.26192 3.148 8.70992C3.06 9.15792 3.016 9.60992 3.016 10.0646C3.016 10.5193 3.06267 10.9859 3.15867 11.4193C3.25467 11.8526 3.408 12.2339 3.62133 12.5646C3.83333 12.8953 4.112 13.1632 4.45733 13.3686C4.80267 13.5739 5.232 13.6766 5.74533 13.6766L5.74667 13.6753Z" class="fill-poheWhite"></path><path id="Vector_3" d="M12.8965 10.0432C12.8965 9.13392 13.0365 8.30725 13.3152 7.56592C13.5938 6.82592 13.9898 6.19392 14.5045 5.67258C15.0178 5.15125 15.6338 4.74725 16.3538 4.46058C17.0725 4.17392 17.8805 4.03125 18.7765 4.03125C19.6725 4.03125 20.4832 4.17525 21.2098 4.46058C21.9365 4.74725 22.5565 5.15125 23.0711 5.67258C23.5845 6.19392 23.9805 6.82458 24.2605 7.56592C24.5392 8.30725 24.6778 9.13392 24.6778 10.0432C24.6778 10.9526 24.5378 11.7752 24.2605 12.5099C23.9805 13.2446 23.5845 13.8712 23.0711 14.3926C22.5578 14.9139 21.9378 15.3179 21.2098 15.6032C20.4832 15.8899 19.6712 16.0326 18.7765 16.0326C17.8818 16.0326 17.0738 15.8899 16.3538 15.6032C15.6338 15.3166 15.0178 14.9139 14.5045 14.3926C13.9912 13.8712 13.5938 13.2432 13.3152 12.5099C13.0365 11.7752 12.8965 10.9539 12.8965 10.0432ZM16.0232 10.0432C16.0232 10.4992 16.0672 10.9432 16.1552 11.3752C16.2432 11.8086 16.3925 12.1979 16.6058 12.5419C16.8192 12.8872 17.1018 13.1632 17.4538 13.3672C17.8058 13.5726 18.2472 13.6753 18.7752 13.6753C19.3032 13.6753 19.7485 13.5726 20.1072 13.3672C20.4672 13.1619 20.7525 12.8872 20.9658 12.5419C21.1792 12.1966 21.3298 11.8072 21.4178 11.3752C21.5058 10.9419 21.5498 10.4992 21.5498 10.0432C21.5498 9.58725 21.5058 9.14058 21.4178 8.70058C21.3298 8.25925 21.1792 7.87125 20.9658 7.53258C20.7525 7.19525 20.4672 6.92058 20.1072 6.70725C19.7472 6.49525 19.3032 6.38858 18.7752 6.38858C18.2472 6.38858 17.8072 6.49525 17.4538 6.70725C17.1018 6.92058 16.8192 7.19658 16.6058 7.53258C16.3925 7.87125 16.2432 8.25925 16.1552 8.70058C16.0672 9.14058 16.0232 9.58858 16.0232 10.0432Z" class="fill-poheWhite"></path><path id="Vector_4" d="M30.3098 4.33521H32.6004V6.42721H30.3098V12.0645C30.3098 12.5925 30.3978 12.9459 30.5738 13.1205C30.7498 13.2965 31.1018 13.3845 31.6298 13.3845C31.9818 13.3845 32.3044 13.3552 32.5991 13.2965V15.7405C32.3351 15.7845 32.0418 15.8139 31.7178 15.8285C31.3951 15.8432 31.0791 15.8512 30.7711 15.8512C30.2871 15.8512 29.8284 15.8179 29.3951 15.7512C28.9618 15.6859 28.5804 15.5539 28.2498 15.3552C27.9191 15.1579 27.6578 14.8819 27.4671 14.5299C27.2764 14.1779 27.1804 13.7152 27.1804 13.1432V6.42721H25.2871V4.33521H27.1804V0.921875H30.3071V4.33521H30.3098Z" class="fill-poheWhite"></path><path id="Vector_5" d="M34.5063 7.83925C34.5503 7.10592 34.7343 6.49658 35.057 6.01258C35.3796 5.52858 35.7916 5.13925 36.2903 4.84592C36.789 4.55258 37.3463 4.34325 37.9636 4.21792C38.581 4.09258 39.2116 4.03125 39.857 4.03125C40.4303 4.03125 41.009 4.07258 41.597 4.15258C42.1836 4.23392 42.7196 4.39125 43.205 4.62592C43.689 4.86058 44.0863 5.19125 44.3943 5.61792C44.7023 6.04325 44.857 6.59392 44.857 7.26992V13.1926C44.857 13.7073 44.8863 14.1979 44.945 14.6686C45.0036 15.1379 45.1063 15.4913 45.253 15.7246H42.0823C42.0236 15.5486 41.9756 15.3686 41.9383 15.1859C41.9023 15.0019 41.8756 14.8153 41.861 14.6246C41.361 15.1379 40.7743 15.5019 40.0996 15.7153C39.425 15.9286 38.7343 16.0339 38.0303 16.0339C37.4863 16.0339 36.9796 15.9646 36.5103 15.8246C36.0396 15.6859 35.629 15.4766 35.277 15.1979C34.925 14.9193 34.649 14.5673 34.4516 14.1406C34.253 13.7153 34.1543 13.2086 34.1543 12.6219C34.1543 11.9766 34.2636 11.4433 34.485 11.0259C34.705 10.6073 34.9983 10.2739 35.365 10.0233C35.7316 9.77392 36.1476 9.58725 36.609 9.46192C37.0716 9.33792 37.545 9.23792 38.0303 9.16458C38.5143 9.09125 38.977 9.03258 39.417 8.98858C39.857 8.94458 40.2503 8.87792 40.5943 8.78992C40.9396 8.70192 41.2143 8.57392 41.4196 8.40458C41.625 8.23658 41.7276 7.98992 41.7276 7.66725C41.7276 7.34458 41.673 7.06192 41.5623 6.86325C41.4516 6.66592 41.3063 6.51125 41.1223 6.40058C40.9383 6.29125 40.7263 6.21658 40.4836 6.18058C40.241 6.14458 39.981 6.12592 39.701 6.12592C39.0983 6.12592 38.6183 6.25792 38.2583 6.52192C37.8983 6.78592 37.689 7.22592 37.6316 7.84325H34.5036L34.5063 7.83925ZM41.729 10.1512C41.597 10.2686 41.4316 10.3606 41.2343 10.4259C41.037 10.4913 40.8236 10.5473 40.5956 10.5913C40.369 10.6353 40.1263 10.6726 39.869 10.7019C39.6116 10.7313 39.3663 10.7673 39.1316 10.8126C38.881 10.8566 38.6476 10.9153 38.4263 10.9886C38.2063 11.0619 38.0116 11.1619 37.8423 11.2859C37.6743 11.4113 37.5383 11.5726 37.4356 11.7699C37.333 11.9672 37.281 12.2073 37.281 12.4859C37.281 12.7793 37.333 13.0179 37.4356 13.2019C37.5383 13.3859 37.6783 13.5326 37.8543 13.6419C38.0303 13.7526 38.2356 13.8286 38.4703 13.8739C38.705 13.9179 38.9476 13.9392 39.197 13.9392C39.813 13.9392 40.2903 13.8366 40.6276 13.6313C40.965 13.4259 41.2143 13.1793 41.377 12.8939C41.5383 12.6073 41.637 12.3179 41.6743 12.0233C41.7103 11.7299 41.729 11.4953 41.729 11.3193V10.1526V10.1512Z" class="fill-poheWhite"></path><path id="Vector_6" d="M51.0383 4.33521H53.329V6.42721H51.0383V12.0645C51.0383 12.5925 51.1263 12.9459 51.3023 13.1205C51.4783 13.2965 51.8303 13.3845 52.3583 13.3845C52.7103 13.3845 53.033 13.3552 53.3276 13.2965V15.7405C53.0636 15.7845 52.7703 15.8139 52.4463 15.8285C52.1236 15.8432 51.8076 15.8512 51.4996 15.8512C51.0156 15.8512 50.557 15.8179 50.1236 15.7512C49.6903 15.6859 49.309 15.5539 48.9783 15.3552C48.6476 15.1579 48.3863 14.8819 48.1956 14.5299C48.005 14.1779 47.909 13.7152 47.909 13.1432V6.42721H46.0156V4.33521H47.909V0.921875H51.0356V4.33521H51.0383Z" class="fill-poheWhite"></path><path id="Vector_7" d="M54.2754 10.0432C54.2754 9.13392 54.4154 8.30725 54.6941 7.56592C54.9727 6.82592 55.3687 6.19392 55.8834 5.67258C56.3967 5.15125 57.0127 4.74725 57.7327 4.46058C58.4514 4.17392 59.2594 4.03125 60.1554 4.03125C61.0514 4.03125 61.8621 4.17525 62.5887 4.46058C63.3154 4.74725 63.9354 5.15125 64.4501 5.67258C64.9634 6.19392 65.3594 6.82458 65.6394 7.56592C65.9181 8.30725 66.0567 9.13392 66.0567 10.0432C66.0567 10.9526 65.9167 11.7752 65.6394 12.5099C65.3594 13.2446 64.9634 13.8712 64.4501 14.3926C63.9367 14.9139 63.3167 15.3179 62.5887 15.6032C61.8621 15.8899 61.0501 16.0326 60.1554 16.0326C59.2607 16.0326 58.4527 15.8899 57.7327 15.6032C57.0127 15.3166 56.3967 14.9139 55.8834 14.3926C55.3701 13.8712 54.9727 13.2432 54.6941 12.5099C54.4154 11.7752 54.2754 10.9539 54.2754 10.0432ZM57.4021 10.0432C57.4021 10.4992 57.4461 10.9432 57.5341 11.3752C57.6221 11.8086 57.7714 12.1979 57.9847 12.5419C58.1981 12.8872 58.4807 13.1632 58.8327 13.3672C59.1847 13.5726 59.6261 13.6753 60.1541 13.6753C60.6821 13.6753 61.1274 13.5726 61.4861 13.3672C61.8461 13.1619 62.1314 12.8872 62.3447 12.5419C62.5581 12.1966 62.7087 11.8072 62.7967 11.3752C62.8847 10.9419 62.9287 10.4992 62.9287 10.0432C62.9287 9.58725 62.8847 9.14058 62.7967 8.70058C62.7087 8.25925 62.5581 7.87125 62.3447 7.53258C62.1314 7.19525 61.8461 6.92058 61.4861 6.70725C61.1261 6.49525 60.6821 6.38858 60.1541 6.38858C59.6261 6.38858 59.1861 6.49525 58.8327 6.70725C58.4807 6.92058 58.1981 7.19658 57.9847 7.53258C57.7714 7.87125 57.6221 8.25925 57.5341 8.70058C57.4461 9.14058 57.4021 9.58858 57.4021 10.0432Z" class="fill-poheWhite"></path><path id="Vector_8" d="M71.3822 0H74.5089V5.924H74.5742C74.9702 5.27867 75.4769 4.80133 76.0942 4.492C76.7102 4.184 77.3115 4.02933 77.8995 4.02933C78.7355 4.02933 79.4222 4.14267 79.9582 4.37067C80.4942 4.59867 80.9155 4.91467 81.2235 5.31733C81.5329 5.72133 81.7489 6.212 81.8742 6.792C81.9982 7.372 82.0609 8.01467 82.0609 8.71867V15.7213H78.9342V9.292C78.9342 8.35333 78.7835 7.65067 78.4822 7.18933C78.1809 6.72667 77.6635 6.496 76.9302 6.496C76.0782 6.496 75.4622 6.74933 75.0809 7.25467C74.6982 7.76133 74.5075 8.59467 74.5075 9.75467V15.7227H71.3809V0H71.3822Z" class="fill-poheWhite"></path><path id="Vector_9" d="M86.8682 10.7912C86.9122 11.7899 87.1696 12.5192 87.6389 12.9819C88.1082 13.4446 88.7842 13.6753 89.6642 13.6753C90.2949 13.6753 90.8389 13.5179 91.2936 13.2019C91.7482 12.8859 92.0282 12.5526 92.1296 12.1993H94.8816C94.4416 13.5499 93.7656 14.5259 92.8562 15.1286C91.9456 15.7299 90.8442 16.0313 89.5536 16.0313C88.6589 16.0313 87.8509 15.8846 87.1309 15.5913C86.4109 15.2979 85.8016 14.8872 85.3029 14.3579C84.8042 13.8286 84.4189 13.1979 84.1469 12.4646C83.8749 11.7299 83.7402 10.9233 83.7402 10.0419C83.7402 9.16058 83.8802 8.39792 84.1589 7.66458C84.4376 6.92992 84.8336 6.29525 85.3482 5.75925C85.8616 5.22325 86.4749 4.80192 87.1869 4.49392C87.8989 4.18592 88.6882 4.03125 89.5536 4.03125C90.5229 4.03125 91.3669 4.21792 92.0856 4.59258C92.8042 4.96725 93.3962 5.46992 93.8576 6.10192C94.3202 6.73258 94.6536 7.45258 94.8602 8.25925C95.0656 9.06725 95.1389 9.91125 95.0802 10.7912H86.8669H86.8682ZM91.9549 8.80992C91.8082 8.01658 91.5469 7.41525 91.1722 7.00458C90.7976 6.59392 90.2296 6.38858 89.4656 6.38858C88.9669 6.38858 88.5522 6.47258 88.2216 6.64192C87.8909 6.81125 87.6269 7.02058 87.4282 7.26992C87.2296 7.51925 87.0896 7.78325 87.0096 8.06325C86.9282 8.34192 86.8816 8.59125 86.8656 8.81125H91.9522L91.9549 8.80992Z" class="fill-poheWhite"></path><path id="Vector_10" d="M96.6014 7.83925C96.6454 7.10592 96.8281 6.49658 97.1521 6.01258C97.4747 5.52858 97.8867 5.13925 98.3854 4.84592C98.8841 4.55258 99.4427 4.34325 100.059 4.21792C100.675 4.09258 101.305 4.03125 101.952 4.03125C102.524 4.03125 103.104 4.07258 103.692 4.15258C104.279 4.23392 104.815 4.39125 105.299 4.62592C105.783 4.86058 106.18 5.19125 106.488 5.61792C106.796 6.04325 106.951 6.59392 106.951 7.26992V13.1926C106.951 13.7073 106.98 14.1979 107.039 14.6686C107.097 15.1379 107.2 15.4913 107.347 15.7246H104.176C104.117 15.5486 104.069 15.3686 104.033 15.1859C103.996 15.0019 103.971 14.8153 103.956 14.6246C103.457 15.1379 102.869 15.5019 102.195 15.7153C101.519 15.9286 100.829 16.0339 100.124 16.0339C99.58 16.0339 99.0747 15.9646 98.6041 15.8246C98.1347 15.6859 97.7241 15.4766 97.3707 15.1979C97.0187 14.9193 96.7427 14.5673 96.5454 14.1406C96.3481 13.7153 96.248 13.2086 96.248 12.6219C96.248 11.9766 96.3587 11.4433 96.5787 11.0259C96.7987 10.6073 97.0921 10.2739 97.4601 10.0233C97.8281 9.77258 98.2414 9.58725 98.7041 9.46192C99.1667 9.33792 99.64 9.23792 100.124 9.16458C100.608 9.09125 101.071 9.03258 101.511 8.98858C101.952 8.94458 102.344 8.87792 102.689 8.78992C103.035 8.70192 103.309 8.57392 103.515 8.40458C103.72 8.23658 103.823 7.98992 103.823 7.66725C103.823 7.34458 103.768 7.06192 103.657 6.86325C103.547 6.66592 103.4 6.51125 103.216 6.40058C103.032 6.29125 102.82 6.21658 102.577 6.18058C102.335 6.14458 102.075 6.12592 101.796 6.12592C101.193 6.12592 100.713 6.25792 100.353 6.52192C99.9934 6.78592 99.7841 7.22592 99.7254 7.84325H96.5987L96.6014 7.83925ZM103.824 10.1512C103.692 10.2686 103.527 10.3606 103.329 10.4259C103.131 10.4913 102.917 10.5473 102.691 10.5913C102.463 10.6353 102.22 10.6726 101.964 10.7019C101.708 10.7313 101.461 10.7673 101.227 10.8126C100.977 10.8566 100.743 10.9153 100.523 10.9886C100.303 11.0619 100.108 11.1619 99.9387 11.2859C99.7694 11.4113 99.6347 11.5726 99.532 11.7699C99.4294 11.9672 99.3774 12.2073 99.3774 12.4859C99.3774 12.7793 99.428 13.0179 99.532 13.2019C99.6347 13.3859 99.7734 13.5326 99.9494 13.6419C100.125 13.7526 100.332 13.8286 100.565 13.8739C100.8 13.9179 101.043 13.9392 101.292 13.9392C101.908 13.9392 102.385 13.8366 102.724 13.6313C103.061 13.4259 103.311 13.1793 103.472 12.8939C103.633 12.6073 103.733 12.3179 103.769 12.0233C103.805 11.7299 103.824 11.4953 103.824 11.3193V10.1526V10.1512Z" class="fill-poheWhite"></path><path id="Vector_11" d="M117.027 14.2693H116.983C116.617 14.8853 116.131 15.3333 115.53 15.612C114.927 15.8907 114.259 16.0293 113.526 16.0293C112.661 16.0293 111.907 15.8613 111.27 15.5227C110.631 15.1853 110.102 14.7333 109.685 14.168C109.266 13.6027 108.95 12.9533 108.738 12.22C108.525 11.4853 108.418 10.7227 108.418 9.92933C108.418 9.136 108.525 8.428 108.738 7.716C108.95 7.004 109.266 6.376 109.685 5.83333C110.102 5.29067 110.627 4.85333 111.259 4.52267C111.89 4.192 112.625 4.028 113.462 4.028C114.137 4.028 114.779 4.172 115.389 4.45733C115.998 4.744 116.479 5.16533 116.831 5.72267H116.875V0H120.002V15.7227H117.03V14.2693H117.027ZM116.983 9.99733C116.983 9.54267 116.939 9.09467 116.851 8.65467C116.763 8.21467 116.613 7.82933 116.399 7.49867C116.186 7.16933 115.907 6.90133 115.563 6.69467C115.218 6.48933 114.797 6.38667 114.298 6.38667C113.799 6.38667 113.351 6.48933 112.998 6.69467C112.646 6.9 112.363 7.172 112.15 7.50933C111.937 7.84667 111.783 8.232 111.687 8.66533C111.591 9.09867 111.545 9.55067 111.545 10.02C111.545 10.46 111.595 10.9013 111.699 11.3413C111.802 11.7813 111.967 12.1747 112.194 12.5187C112.421 12.864 112.707 13.1427 113.053 13.356C113.398 13.5693 113.813 13.6747 114.297 13.6747C114.81 13.6747 115.239 13.572 115.585 13.3667C115.93 13.1613 116.205 12.8867 116.41 12.5413C116.615 12.196 116.762 11.804 116.85 11.364C116.938 10.9227 116.982 10.4693 116.982 9.99867L116.983 9.99733Z" class="fill-poheWhite"></path></g><defs><clipPath id="clip0_1916_3189"><rect width="140" height="20" fill="white"></rect></clipPath></defs></svg>